<svg id="ilustracion" xmlns="http://www.w3.org/2000/svg" width="1920" height="1080" viewBox="0 0 1920 1080">
  <defs>
    <style>
      .cls-1 {
        fill: #806ff2;
      }

      .cls-1, .cls-2, .cls-3 {
        fill-rule: evenodd;
      }

      .cls-2 {
        fill: #564ac5;
      }

      .cls-3 {
        fill: #4037ac;
      }
    </style>
  </defs>
  <path id="Forma_4" data-name="Forma 4" class="cls-1" d="M1141,789s231.44-21.222,258-20,124.77-2.038,163,1,86.93-14.508,114-17,109-10,109-10l97,19,58,4,48,366-739,21L1103,820Z"/>
  <path id="Forma_5" data-name="Forma 5" class="cls-2" d="M1944,808l-49,10-130-28s-25.44-17.729-62,8-92.16,59.069-120,60-43.5-3.03-73,25-45.47,43.055-72,63-48,169-48,169l558,38,24-301Z"/>
  <path id="Forma_1" data-name="Forma 1" class="cls-3" d="M0,536c7.5,8.5,82,26,98,30s107-4,135,0,139,24.5,151,33,44,42,44,42l36,37s174.332,47.413,194,42,34.815-12.788,45-14,13.728-1.445,24,5,14.338,10.371,17,8,33.94-22.763,43-24,27.153-10.165,73,12,45.255,27.779,75,40,70.47-21.809,105-8,46.41,14.825,118,59,95.24,57.252,160,88,111.24,51.745,144,63,86.04,15.465,117,14,56.8-5.885,97,12,105.88,46.45,130,52,63.4,5.66,94,20,45,13,45,13l7,62-1987,2,3-564S-7.5,527.5,0,536Z"/>
  <path id="Forma_2" data-name="Forma 2" class="cls-2" d="M3,642s61.3,26.712,70,31,39.317,4.958,55,18,32.336,14.124,55,34,40.312,16.33,66,35,27.374,13.76,54,31,64.35,20.679,80,26,20.768,20.15,33,24,53.547,7.091,116,28,173.152,43.952,215,62,39.286,4.077,111,35,105.507,35.96,152,44,12.21-22.081,135,31,240,88,240,88l-1462,5L-99,732Z"/>
  <path id="Forma_3" data-name="Forma 3" class="cls-1" d="M1,845l186,53s48.73,6.665,83,19,61.715,1.952,98,17,104.119,16.2,135,29,121.609,37.77,134,45,38.167,24.61,45,30,139.762,27.18,155,36,107,54,107,54l-988-27L-61,886Z"/>
</svg>
